<svg width="25" height="24" viewBox="0 0 25 24" fill="none" xmlns="http://www.w3.org/2000/svg">
<path d="M7.14286 0C8.13058 0 8.92857 0.698242 8.92857 1.5625V3.125H16.0714V1.5625C16.0714 0.698242 16.8694 0 17.8571 0C18.8449 0 19.6429 0.698242 19.6429 1.5625V3.125H21.4286C23.3984 3.125 25 4.52637 25 6.25V20.3125C25 22.0361 23.3984 23.4375 21.4286 23.4375H3.57143C1.60156 23.4375 0 22.0361 0 20.3125V6.25C0 4.52637 1.60156 3.125 3.57143 3.125H5.35714V1.5625C5.35714 0.698242 6.15513 0 7.14286 0ZM3.57143 11.7188V13.2812C3.57143 13.7109 3.97321 14.0625 4.46429 14.0625H6.25C6.74107 14.0625 7.14286 13.7109 7.14286 13.2812V11.7188C7.14286 11.2891 6.74107 10.9375 6.25 10.9375H4.46429C3.97321 10.9375 3.57143 11.2891 3.57143 11.7188ZM10.7143 11.7188V13.2812C10.7143 13.7109 11.1161 14.0625 11.6071 14.0625H13.3929C13.8839 14.0625 14.2857 13.7109 14.2857 13.2812V11.7188C14.2857 11.2891 13.8839 10.9375 13.3929 10.9375H11.6071C11.1161 10.9375 10.7143 11.2891 10.7143 11.7188ZM18.75 10.9375C18.2589 10.9375 17.8571 11.2891 17.8571 11.7188V13.2812C17.8571 13.7109 18.2589 14.0625 18.75 14.0625H20.5357C21.0268 14.0625 21.4286 13.7109 21.4286 13.2812V11.7188C21.4286 11.2891 21.0268 10.9375 20.5357 10.9375H18.75ZM3.57143 17.9688V19.5312C3.57143 19.9609 3.97321 20.3125 4.46429 20.3125H6.25C6.74107 20.3125 7.14286 19.9609 7.14286 19.5312V17.9688C7.14286 17.5391 6.74107 17.1875 6.25 17.1875H4.46429C3.97321 17.1875 3.57143 17.5391 3.57143 17.9688ZM11.6071 17.1875C11.1161 17.1875 10.7143 17.5391 10.7143 17.9688V19.5312C10.7143 19.9609 11.1161 20.3125 11.6071 20.3125H13.3929C13.8839 20.3125 14.2857 19.9609 14.2857 19.5312V17.9688C14.2857 17.5391 13.8839 17.1875 13.3929 17.1875H11.6071ZM17.8571 17.9688V19.5312C17.8571 19.9609 18.2589 20.3125 18.75 20.3125H20.5357C21.0268 20.3125 21.4286 19.9609 21.4286 19.5312V17.9688C21.4286 17.5391 21.0268 17.1875 20.5357 17.1875H18.75C18.2589 17.1875 17.8571 17.5391 17.8571 17.9688Z" fill="white"/>
</svg>
