<svg width="25" height="22" viewBox="0 0 25 22" fill="none" xmlns="http://www.w3.org/2000/svg">
<path d="M0 3.125C0 1.40137 1.60156 0 3.57143 0H21.4286C23.3984 0 25 1.40137 25 3.125V18.75C25 20.4736 23.3984 21.875 21.4286 21.875H3.57143C1.60156 21.875 0 20.4736 0 18.75V3.125ZM2.67857 16.4062V17.9688C2.67857 18.3984 3.08036 18.75 3.57143 18.75H5.35714C5.84821 18.75 6.25 18.3984 6.25 17.9688V16.4062C6.25 15.9766 5.84821 15.625 5.35714 15.625H3.57143C3.08036 15.625 2.67857 15.9766 2.67857 16.4062ZM19.6429 15.625C19.1518 15.625 18.75 15.9766 18.75 16.4062V17.9688C18.75 18.3984 19.1518 18.75 19.6429 18.75H21.4286C21.9196 18.75 22.3214 18.3984 22.3214 17.9688V16.4062C22.3214 15.9766 21.9196 15.625 21.4286 15.625H19.6429ZM2.67857 10.1562V11.7188C2.67857 12.1484 3.08036 12.5 3.57143 12.5H5.35714C5.84821 12.5 6.25 12.1484 6.25 11.7188V10.1562C6.25 9.72656 5.84821 9.375 5.35714 9.375H3.57143C3.08036 9.375 2.67857 9.72656 2.67857 10.1562ZM19.6429 9.375C19.1518 9.375 18.75 9.72656 18.75 10.1562V11.7188C18.75 12.1484 19.1518 12.5 19.6429 12.5H21.4286C21.9196 12.5 22.3214 12.1484 22.3214 11.7188V10.1562C22.3214 9.72656 21.9196 9.375 21.4286 9.375H19.6429ZM2.67857 3.90625V5.46875C2.67857 5.89844 3.08036 6.25 3.57143 6.25H5.35714C5.84821 6.25 6.25 5.89844 6.25 5.46875V3.90625C6.25 3.47656 5.84821 3.125 5.35714 3.125H3.57143C3.08036 3.125 2.67857 3.47656 2.67857 3.90625ZM19.6429 3.125C19.1518 3.125 18.75 3.47656 18.75 3.90625V5.46875C18.75 5.89844 19.1518 6.25 19.6429 6.25H21.4286C21.9196 6.25 22.3214 5.89844 22.3214 5.46875V3.90625C22.3214 3.47656 21.9196 3.125 21.4286 3.125H19.6429Z" fill="white"/>
</svg>
