<svg width="25" height="25" viewBox="0 0 25 25" fill="none" xmlns="http://www.w3.org/2000/svg">
<path d="M13.5598 0.41748C12.9592 -0.13916 12.0315 -0.13916 11.4358 0.41748L0.498304 10.5737C0.0295542 11.0132 -0.126696 11.6919 0.107679 12.2876C0.342054 12.8833 0.913343 13.2788 1.55787 13.2788H2.33912V21.8726C2.33912 23.5962 3.74049 24.9976 5.46412 24.9976H19.5266C21.2503 24.9976 22.6516 23.5962 22.6516 21.8726V13.2788H23.4329C24.0774 13.2788 24.6536 12.8833 24.888 12.2876C25.1223 11.6919 24.9661 11.0083 24.4973 10.5737L13.5598 0.41748ZM11.7141 15.6226H13.2766C14.5706 15.6226 15.6204 16.6724 15.6204 17.9663V22.6538H9.37037V17.9663C9.37037 16.6724 10.4202 15.6226 11.7141 15.6226Z" fill="white"/>
</svg>
