<svg width="100" height="88" viewBox="0 0 100 88" fill="none" xmlns="http://www.w3.org/2000/svg">
<path d="M14.2857 0C6.40625 0 0 5.60547 0 12.5V75C0 81.8945 6.40625 87.5 14.2857 87.5H85.7143C93.5938 87.5 100 81.8945 100 75V12.5C100 5.60547 93.5938 0 85.7143 0H14.2857ZM28.5714 15.625C31.413 15.625 34.1383 16.6127 36.1476 18.3709C38.1569 20.129 39.2857 22.5136 39.2857 25C39.2857 27.4864 38.1569 29.871 36.1476 31.6291C34.1383 33.3873 31.413 34.375 28.5714 34.375C25.7298 34.375 23.0046 33.3873 20.9953 31.6291C18.986 29.871 17.8571 27.4864 17.8571 25C17.8571 22.5136 18.986 20.129 20.9953 18.3709C23.0046 16.6127 25.7298 15.625 28.5714 15.625ZM60.7143 37.5C62.5893 37.5 64.308 38.3594 65.2902 39.7461L84.933 67.8711C85.9375 69.3164 85.9821 71.1328 85.0446 72.6172C84.1071 74.1016 82.2991 75 80.3571 75H19.6429C17.6562 75 15.8036 74.0234 14.8884 72.4805C13.9732 70.9375 14.1071 69.0625 15.2455 67.6367L27.7455 52.0117C28.75 50.7617 30.3795 50.0195 32.1429 50.0195C33.9062 50.0195 35.5357 50.7617 36.5402 52.0117L42.433 59.3945L56.1384 39.7656C57.1205 38.3789 58.8393 37.5195 60.7143 37.5195V37.5Z" fill="#070089"/>
</svg>
