<svg width="25" height="19" viewBox="0 0 25 19" fill="none" xmlns="http://www.w3.org/2000/svg">
<path d="M2.77778 0C1.24566 0 0 1.40137 0 3.125V6.25C0 6.67969 0.321181 7.0166 0.681424 7.1582C1.4974 7.47559 2.08333 8.34961 2.08333 9.375C2.08333 10.4004 1.4974 11.2744 0.681424 11.5918C0.321181 11.7334 0 12.0703 0 12.5V15.625C0 17.3486 1.24566 18.75 2.77778 18.75H22.2222C23.7543 18.75 25 17.3486 25 15.625V12.5C25 12.0703 24.6788 11.7334 24.3186 11.5918C23.5026 11.2744 22.9167 10.4004 22.9167 9.375C22.9167 8.34961 23.5026 7.47559 24.3186 7.1582C24.6788 7.0166 25 6.67969 25 6.25V3.125C25 1.40137 23.7543 0 22.2222 0H2.77778ZM18.0556 13.2812V5.46875H6.94444V13.2812H18.0556ZM4.86111 4.6875C4.86111 3.82324 5.48177 3.125 6.25 3.125H18.75C19.5182 3.125 20.1389 3.82324 20.1389 4.6875V14.0625C20.1389 14.9268 19.5182 15.625 18.75 15.625H6.25C5.48177 15.625 4.86111 14.9268 4.86111 14.0625V4.6875Z" fill="white"/>
</svg>
