<svg width="25" height="25" viewBox="0 0 25 25" fill="none" xmlns="http://www.w3.org/2000/svg">
<path d="M12.5 0C15.8152 0 18.9946 1.31696 21.3388 3.66117C23.683 6.00537 25 9.18479 25 12.5C25 15.8152 23.683 18.9946 21.3388 21.3388C18.9946 23.683 15.8152 25 12.5 25C9.18479 25 6.00537 23.683 3.66117 21.3388C1.31696 18.9946 0 15.8152 0 12.5C0 9.18479 1.31696 6.00537 3.66117 3.66117C6.00537 1.31696 9.18479 0 12.5 0ZM11.3281 5.85938V12.5C11.3281 12.8906 11.5234 13.2568 11.8506 13.4766L16.5381 16.6016C17.0752 16.9629 17.8027 16.8164 18.1641 16.2744C18.5254 15.7324 18.3789 15.0098 17.8369 14.6484L13.6719 11.875V5.85938C13.6719 5.20996 13.1494 4.6875 12.5 4.6875C11.8506 4.6875 11.3281 5.20996 11.3281 5.85938Z" fill="white"/>
</svg>
