<svg width="24" height="25" viewBox="0 0 24 25" fill="none" xmlns="http://www.w3.org/2000/svg">
<path d="M11.6071 11.7188C12.4865 11.7188 13.3573 11.5672 14.1698 11.2727C14.9822 10.9783 15.7204 10.5467 16.3422 10.0026C16.9641 9.45849 17.4573 8.81255 17.7938 8.10166C18.1304 7.39077 18.3036 6.62884 18.3036 5.85938C18.3036 5.08991 18.1304 4.32798 17.7938 3.61709C17.4573 2.9062 16.9641 2.26026 16.3422 1.71617C15.7204 1.17208 14.9822 0.740479 14.1698 0.446018C13.3573 0.151557 12.4865 -1.14659e-08 11.6071 0C10.7278 -1.14659e-08 9.85698 0.151557 9.04453 0.446018C8.23208 0.740479 7.49387 1.17208 6.87205 1.71617C6.25023 2.26026 5.75698 2.9062 5.42045 3.61709C5.08392 4.32798 4.91071 5.08991 4.91071 5.85938C4.91071 6.62884 5.08392 7.39077 5.42045 8.10166C5.75698 8.81255 6.25023 9.45849 6.87205 10.0026C7.49387 10.5467 8.23208 10.9783 9.04453 11.2727C9.85698 11.5672 10.7278 11.7188 11.6071 11.7188ZM9.94978 14.4531C4.45312 14.4531 0 18.3496 0 23.1592C0 23.96 0.742188 24.6094 1.65737 24.6094H21.5569C22.4721 24.6094 23.2143 23.96 23.2143 23.1592C23.2143 18.3496 18.7612 14.4531 13.2645 14.4531H9.94978Z" fill="white"/>
</svg>
